<?xml version="1.0" standalone="no"?>
<!DOCTYPE svg PUBLIC "-//W3C//DTD SVG 20010904//EN"
 "http://www.w3.org/TR/2001/REC-SVG-20010904/DTD/svg10.dtd">
<svg version="1.0" xmlns="http://www.w3.org/2000/svg"
 width="1696.000000pt" height="1696.000000pt" viewBox="0 0 1696.000000 1696.000000"
 preserveAspectRatio="xMidYMid meet">
<metadata>
Created by potrace 1.11, written by Peter Selinger 2001-2013
</metadata>
<g transform="translate(0.000000,1696.000000) scale(0.100000,-0.100000)"
fill="#000000" stroke="none">
<path d="M3396 13192 c-3 -3 -308 -5 -678 -6 -654 -1 -674 -2 -707 -21 -50
-30 -73 -65 -76 -121 -5 -110 33 -141 182 -150 53 -3 100 -7 103 -9 5 -3 79
-11 183 -20 44 -4 45 -4 22 -18 -13 -8 -79 -12 -195 -14 -96 -1 -180 -2 -186
-2 -15 -1 -76 -59 -95 -91 -34 -54 4 -162 72 -207 32 -21 37 -29 29 -43 -5
-10 -23 -21 -40 -25 -16 -4 -43 -22 -59 -42 -35 -42 -35 -82 -1 -134 41 -62
82 -77 154 -58 45 12 54 5 52 -44 -1 -32 -1 -32 -56 -33 -30 -1 -58 -3 -62 -4
-5 -1 -11 -3 -15 -4 -33 -6 -92 -84 -88 -116 1 -8 3 -22 3 -31 1 -9 13 -29 26
-44 24 -28 26 -28 148 -31 67 -1 157 -5 198 -9 41 -4 85 -8 97 -9 12 -1 25 -5
29 -9 4 -3 14 -2 24 3 10 5 20 7 23 4 12 -12 274 -20 324 -10 27 6 35 -4 22
-24 -5 -9 -9 -10 -9 -3 0 7 -17 5 -50 -8 -40 -15 -55 -17 -72 -8 -19 10 -44 9
-163 -8 -16 -2 -125 -5 -240 -7 -244 -4 -282 -9 -318 -40 -49 -42 -54 -89 -19
-169 22 -50 52 -71 88 -64 13 2 24 0 24 -5 0 -5 6 -8 13 -7 25 3 37 -1 37 -15
0 -15 -45 -30 -60 -21 -6 4 -10 1 -10 -5 0 -6 -15 -17 -33 -25 -35 -14 -67
-45 -71 -67 -1 -7 -4 -17 -7 -23 -9 -15 -5 -78 6 -96 24 -40 62 -47 253 -45
115 1 182 -3 182 -9 0 -6 3 -6 8 0 10 14 67 12 85 -3 8 -7 13 -22 10 -32 -4
-16 -14 -20 -52 -21 -25 0 -53 -2 -61 -3 -8 -2 -44 -6 -80 -10 -36 -4 -83 -9
-105 -12 -22 -3 -62 -6 -90 -8 -77 -6 -147 -35 -163 -70 -13 -29 -5 -86 14
-108 9 -9 17 -33 18 -53 0 -19 7 -37 14 -40 13 -5 17 -35 4 -35 -15 0 -52 -77
-52 -108 0 -62 33 -112 75 -112 13 0 25 6 27 12 3 9 16 5 44 -13 39 -26 40
-26 227 -24 103 1 189 -1 192 -5 7 -11 97 -5 121 8 25 13 50 10 95 -14 35 -18
92 -21 214 -10 39 4 99 8 135 9 36 2 70 5 75 8 23 12 237 -4 286 -20 29 -10
59 2 59 24 0 8 6 15 14 15 12 0 14 17 11 91 -2 74 -6 93 -21 104 -11 8 -24 15
-30 15 -21 0 -23 41 -3 61 10 10 22 19 27 19 4 0 7 43 6 96 -1 86 -3 99 -23
120 -24 25 -26 25 -173 28 l-88 2 -35 40 c-19 21 -35 42 -35 47 0 8 1 8 168
10 67 1 122 5 122 10 0 4 4 6 9 3 12 -8 21 44 21 118 0 33 5 68 10 76 9 15
-13 50 -32 50 -5 0 -16 7 -25 15 -14 14 -14 18 2 35 10 11 27 20 37 20 29 0
45 50 41 129 -5 128 6 123 -246 124 -166 1 -208 4 -236 18 -23 11 -50 15 -83
12 -39 -4 -48 -2 -48 11 0 19 -9 18 120 20 103 3 158 16 217 53 16 11 30 12
57 5 19 -6 36 -9 38 -7 3 3 122 17 148 17 9 0 26 7 39 17 20 15 23 26 23 82 1
104 0 106 -31 119 -35 14 -97 67 -88 76 3 3 23 8 44 11 43 6 43 6 47 25 2 7 8
26 14 41 15 36 25 85 23 115 -1 35 -19 64 -59 99 -32 28 -34 33 -16 33 12 0
31 9 44 20 20 18 23 29 23 107 0 49 -2 95 -4 103 -7 26 -41 50 -73 51 -17 1
-48 1 -68 2 -28 1 -35 4 -27 13 13 15 48 24 54 14 13 -21 85 24 85 54 0 7 6
29 13 47 18 44 13 110 -10 157 -13 27 -26 38 -50 43 -18 3 -35 4 -37 1z m-478
-357 c7 -14 12 -28 12 -31 0 -4 -30 1 -72 13 -25 6 -22 22 5 33 35 14 43 12
55 -15z m326 5 c17 -17 -13 -31 -59 -28 -27 2 -40 8 -40 18 0 26 75 34 99 10z
m-180 -11 c19 3 26 0 26 -13 0 -16 -16 -16 -44 1 -11 6 -16 15 -11 23 6 9 9 9
15 0 4 -6 10 -11 14 -11z m-844 -289 c3 -1 13 -2 23 -1 9 1 17 -4 17 -12 0
-14 -12 -15 -68 -2 -21 5 -29 11 -21 15 10 7 31 6 49 0z m807 -12 c2 -17 -12
-18 -170 -18 -125 1 -167 3 -154 11 10 6 43 13 75 15 31 3 57 6 58 7 1 1 45 2
96 2 82 0 94 -2 95 -17z m187 -309 c101 -1 106 -2 91 -18 -16 -18 -85 -44 -85
-33 0 4 -12 8 -28 9 -36 3 -102 31 -102 44 0 5 4 8 8 5 5 -3 57 -6 116 -7z
m-681 -30 c-44 -33 -57 -35 -97 -14 -32 17 -66 20 -66 5 0 -5 -4 -10 -9 -10
-5 0 -8 8 -6 18 2 9 4 20 4 25 1 4 49 7 107 6 l105 -1 -38 -29z m737 -643 c81
-24 80 -34 -5 -35 -36 0 -70 -3 -75 -6 -6 -3 -10 -3 -10 2 0 4 -38 7 -85 5
-47 -2 -85 0 -85 3 0 7 44 25 85 35 30 7 147 5 175 -4z m-654 -27 c3 -5 -35
-9 -87 -9 -93 0 -112 8 -42 17 21 3 39 6 40 7 6 5 84 -8 89 -15z m-169 -576
c31 -20 59 -27 131 -32 6 -1 12 -4 12 -8 0 -10 -248 -9 -257 1 -12 12 32 41
85 55 1 1 14 -7 29 -16z m-327 -28 c14 -17 10 -25 -12 -29 -7 -1 -18 -5 -24
-9 -17 -10 -27 23 -13 39 15 18 33 18 49 -1z m1174 0 c56 -6 65 -21 19 -30
-56 -11 -153 -14 -153 -5 0 4 -6 8 -12 7 -29 -1 -48 4 -48 11 0 17 57 31 105
26 28 -3 68 -7 89 -9z"/>
<path d="M9060 13117 c0 -5 -4 -6 -8 -3 -11 6 -118 -21 -152 -39 -25 -13 -100
-81 -100 -91 0 -3 4 -3 9 0 5 3 12 -6 16 -22 5 -15 10 -34 12 -42 3 -8 4 -24
3 -35 -6 -126 -3 -141 43 -172 39 -27 55 -28 119 -8 l47 14 26 -31 c29 -35 25
-44 -24 -53 -19 -3 -38 -8 -43 -11 -4 -3 -8 1 -8 9 0 24 -42 29 -65 7 -11 -10
-24 -19 -30 -20 -5 0 -25 -10 -42 -20 -27 -16 -33 -26 -34 -55 -2 -47 -3 -52
-10 -60 -11 -11 15 -69 41 -93 37 -33 43 -37 70 -40 14 -2 31 -9 38 -15 11 -9
3 -16 -36 -33 -71 -31 -110 -87 -106 -151 4 -71 33 -93 127 -94 423 -3 512 -5
515 -14 2 -5 8 -18 14 -29 7 -13 7 -16 -1 -12 -6 4 -11 3 -11 -2 0 -5 -38 -9
-85 -8 -108 2 -150 -13 -165 -59 -13 -39 -24 -49 -73 -70 -31 -13 -38 -13 -50
-1 -16 16 -83 46 -89 40 -2 -2 -13 -5 -24 -7 -10 -2 -32 -9 -47 -15 -16 -7
-32 -12 -37 -12 -26 0 -64 -28 -79 -59 -15 -32 -17 -51 -12 -98 3 -32 65 -41
282 -41 118 0 223 -1 233 -1 18 -1 18 -3 -4 -26 -18 -19 -23 -38 -26 -91 -2
-36 -6 -69 -9 -72 -9 -9 -75 -8 -75 1 0 4 -5 5 -11 1 -6 -3 -50 -8 -98 -10
-103 -5 -119 -7 -193 -23 -52 -11 -57 -15 -64 -44 -12 -51 -12 -197 0 -206 32
-25 243 -46 460 -46 l206 0 -2 -58 c-3 -65 8 -80 54 -73 37 6 57 -19 35 -41
-13 -14 -21 -14 -42 -5 -34 16 -65 15 -101 -2 -22 -11 -79 -13 -249 -12 -121
2 -224 0 -230 -3 -5 -3 -20 -6 -32 -7 -21 -1 -65 -41 -100 -92 -10 -15 -12
-26 -5 -35 5 -6 12 -36 14 -65 9 -98 -14 -93 417 -89 207 2 386 6 398 10 28 7
38 -7 38 -58 0 -71 -16 -79 -158 -80 -102 -2 -129 -5 -163 -23 -36 -18 -43
-19 -65 -7 -13 8 -30 17 -37 21 -7 4 -31 0 -52 -9 -44 -17 -285 -24 -309 -8
-48 31 -127 -93 -88 -138 8 -9 17 -29 21 -44 6 -25 10 -28 39 -22 50 10 92 6
157 -14 64 -20 125 -20 157 0 17 10 28 9 64 -5 27 -11 67 -17 104 -16 33 1
157 2 275 3 l215 2 -1 -22 c0 -13 3 -23 6 -23 10 0 7 -66 -3 -76 -4 -4 -175
-9 -380 -10 -204 -2 -390 -5 -412 -8 -22 -2 -65 -7 -95 -11 -71 -7 -90 -13
-120 -39 -21 -18 -25 -29 -24 -73 1 -29 3 -56 4 -60 1 -5 2 -11 1 -15 0 -5 3
-8 9 -8 5 0 10 -6 10 -12 0 -7 17 -24 38 -37 l37 -25 537 0 538 0 10 -30 c5
-17 9 -40 8 -51 0 -11 1 -27 3 -35 3 -12 -5 -15 -41 -13 -73 2 -102 3 -160 2
-30 0 -66 0 -80 0 -14 0 -70 1 -125 0 -55 0 -109 0 -120 0 -77 1 -123 -3 -140
-12 -11 -6 -23 -11 -27 -12 -3 0 -10 -3 -14 -7 -13 -14 -36 -8 -65 16 -24 20
-38 24 -82 22 -106 -5 -198 -96 -189 -186 1 -9 14 -23 30 -32 25 -15 91 -16
646 -16 532 0 621 -2 633 -15 8 -8 17 -36 19 -62 3 -31 12 -53 24 -64 15 -12
17 -20 9 -31 -8 -11 -12 -12 -16 -2 -2 6 -13 12 -24 12 -10 0 -19 7 -19 15 0
8 -3 15 -7 16 -5 0 -154 1 -333 2 -243 2 -331 6 -348 15 -19 11 -26 10 -47 -7
-16 -12 -35 -18 -53 -15 -33 6 -224 4 -272 -2 -194 -24 -228 -45 -232 -144 -3
-78 22 -99 121 -106 30 -2 69 -13 89 -24 30 -18 96 -32 152 -32 8 0 48 9 89
19 51 14 93 19 135 15 34 -2 75 -4 91 -3 17 1 73 1 125 0 52 -1 118 -2 145 -2
28 0 78 6 113 13 49 11 69 11 95 2 28 -10 38 -8 89 17 84 43 96 53 103 94 5
23 18 46 37 62 41 34 52 32 77 -18 13 -25 13 -29 -5 -41 -46 -34 -53 -43 -57
-73 -5 -32 23 -124 45 -150 6 -7 8 -13 4 -13 -3 0 3 -15 14 -32 20 -33 28
-104 11 -93 -18 11 -16 -30 3 -70 25 -50 34 -57 68 -51 42 8 66 -33 64 -111
-1 -34 -4 -65 -8 -69 -4 -3 -3 -15 3 -26 5 -10 8 -22 5 -26 -10 -16 35 -74 68
-87 42 -18 240 -15 258 3 16 16 34 15 52 -3 16 -16 11 -49 -6 -39 -6 4 -5 10
3 15 8 5 10 9 4 10 -48 7 -55 5 -55 -13 0 -11 5 -16 10 -13 6 3 10 2 10 -3 0
-14 -29 -24 -80 -28 -103 -8 -131 -14 -175 -39 -25 -15 -49 -35 -54 -44 -4 -9
-6 -45 -5 -80 4 -70 22 -101 59 -101 37 0 47 -23 41 -87 -2 -32 -6 -67 -8 -78
-7 -38 14 -75 65 -117 29 -23 53 -43 55 -44 2 -1 -7 -19 -18 -39 -39 -70 -3
-195 56 -195 12 0 29 -6 36 -12 14 -13 33 -20 56 -21 21 -1 13 -18 -31 -67
-24 -27 -44 -57 -45 -67 -10 -134 7 -173 77 -173 16 0 32 -3 35 -8 2 -4 -6
-29 -18 -55 -36 -73 -24 -139 36 -198 51 -51 71 -116 48 -158 -28 -52 -14
-119 26 -122 8 -1 19 -3 24 -4 6 -1 14 -3 18 -4 5 0 8 -60 7 -132 -1 -162 7
-187 60 -206 22 -8 52 -20 68 -25 34 -13 34 -27 -1 -58 -29 -25 -57 -86 -43
-94 6 -4 11 -37 14 -106 2 -30 39 -58 73 -54 l24 2 -20 -29 c-12 -16 -27 -32
-34 -36 -14 -9 -29 -43 -18 -43 4 0 8 -18 9 -40 3 -39 24 -93 41 -104 5 -3 24
-8 43 -11 43 -8 50 -20 43 -75 -3 -25 -6 -56 -7 -70 -2 -42 32 -117 68 -149
l34 -29 -32 -25 c-40 -31 -39 -64 5 -144 51 -95 44 -91 163 -85 75 3 105 1
105 -7 0 -6 -18 -11 -45 -11 -30 0 -50 -6 -61 -17 -43 -49 -64 -80 -65 -98 -6
-83 11 -129 55 -153 17 -9 34 -16 38 -17 3 0 10 -3 14 -7 4 -5 17 -8 28 -8 18
0 16 -3 -11 -22 -29 -21 -39 -40 -49 -88 -5 -24 16 -93 34 -113 18 -20 93 -57
116 -57 23 0 24 -23 3 -45 -28 -29 -37 -59 -37 -120 0 -69 11 -96 55 -137 35
-32 36 -35 41 -123 4 -76 9 -97 32 -135 15 -25 29 -63 31 -85 5 -65 7 -67 136
-126 25 -11 174 -14 815 -16 530 -2 798 1 825 8 58 15 97 72 90 129 -3 23 -7
46 -10 50 -3 5 13 28 35 52 42 45 51 74 49 148 -4 97 -1 110 28 121 34 13 92
78 93 104 0 35 -46 91 -93 112 -28 13 -32 21 -19 38 16 22 42 37 74 42 44 7
68 20 68 38 0 8 5 15 10 15 6 0 10 6 10 14 0 7 6 18 13 24 30 25 18 62 -36
112 l-52 48 21 29 c12 15 34 32 50 37 61 18 71 27 81 70 20 87 -33 156 -118
156 -37 0 -51 4 -58 19 -10 18 -6 19 77 19 157 0 152 0 185 35 33 34 58 64 70
84 9 14 -25 81 -58 117 l-24 26 42 43 c73 74 91 134 63 213 -7 22 -12 48 -10
58 3 19 27 39 49 41 22 2 45 18 45 31 0 7 6 17 14 21 11 7 43 95 51 143 3 17
-48 70 -67 70 -15 0 42 49 58 50 23 0 46 39 46 77 0 70 -9 125 -23 134 -26 17
-58 21 -86 11 -23 -7 -34 -5 -65 17 -21 14 -38 29 -38 34 0 9 38 24 77 31 15
2 30 5 33 6 3 1 8 2 13 1 4 0 7 3 7 8 0 5 15 7 33 4 17 -3 39 -6 47 -8 49 -7
102 79 90 147 -5 23 -6 51 -4 63 5 26 40 55 68 55 25 0 46 39 46 88 0 26 -10
43 -45 80 -25 25 -45 49 -45 54 0 4 12 16 27 25 56 36 116 91 131 119 15 29 8
83 -17 132 -27 52 -27 52 9 52 50 0 108 29 118 58 10 29 9 84 -3 123 -10 31
-42 67 -80 86 -27 15 -28 17 -10 23 11 4 28 3 38 -2 11 -5 17 -5 17 2 0 5 3 9
8 9 28 -5 49 12 105 85 42 56 45 78 17 121 -27 40 -26 80 2 99 12 9 30 16 38
16 9 0 27 15 40 33 20 26 24 43 24 96 -1 38 -6 66 -13 71 -7 4 -11 9 -10 11 2
2 -4 15 -14 29 -9 13 -17 20 -17 15 0 -5 -6 0 -14 10 -12 17 -12 21 3 31 23
17 90 34 95 25 3 -4 18 -6 33 -3 35 5 64 61 68 134 4 68 0 76 -46 95 -43 17
-50 28 -19 30 60 5 116 87 106 157 -10 73 -5 131 13 149 6 6 29 12 53 14 23 3
46 10 50 16 16 24 38 111 38 148 0 21 4 40 9 43 4 3 11 18 14 34 3 16 16 34
31 41 19 11 26 24 31 61 4 29 2 56 -5 69 -6 12 -7 21 -3 21 4 1 -1 8 -12 18
-12 9 -30 32 -40 50 l-20 34 28 24 c15 13 34 24 41 24 17 0 77 63 81 86 2 11
4 21 5 24 1 3 2 21 1 40 0 58 26 112 69 142 42 29 41 25 26 133 -6 38 -18 55
-40 55 -12 0 -27 5 -34 12 -17 17 -15 48 3 49 15 1 47 5 63 8 5 0 30 17 56 37
49 39 106 51 156 32 14 -5 33 -11 44 -14 10 -2 21 -5 23 -8 3 -3 17 7 31 22
30 30 -2 28 372 21 49 -1 95 3 107 10 28 14 110 14 115 0 3 -8 15 -5 38 7 30
16 58 19 190 19 207 1 202 -2 198 123 -3 97 -3 97 -28 94 -77 -8 -156 0 -192
19 -22 12 -70 12 -103 -1 -20 -8 -32 -6 -51 7 -23 15 -66 16 -405 15 -372 -2
-379 -2 -379 18 0 11 14 33 30 48 16 16 30 37 30 46 0 15 9 17 53 16 28 -1 54
-1 57 -1 3 1 183 2 400 4 338 3 435 6 435 18 0 5 54 12 103 13 l52 1 0 132 c0
123 -1 133 -21 143 -13 8 -161 11 -465 12 -244 0 -444 3 -445 6 0 4 -2 23 -4
42 -8 78 -16 96 -55 129 -22 19 -40 38 -40 43 0 18 53 -2 79 -30 l28 -29 299
2 c282 1 302 2 343 22 43 21 44 21 65 2 37 -35 88 -37 160 -6 21 9 42 17 47
17 5 0 9 54 9 119 l0 119 -37 23 c-38 22 -41 23 -411 24 -307 1 -375 4 -382
15 -14 23 0 32 38 25 34 -6 573 -8 602 -1 8 1 35 6 60 10 25 4 54 9 65 11 11
2 30 4 43 4 21 1 22 4 22 111 0 107 0 110 -22 109 -38 -2 -112 13 -127 24 -8
7 -64 11 -142 12 -71 0 -129 3 -129 7 0 4 -10 4 -22 0 -13 -4 -36 -6 -53 -5
-16 2 -41 3 -55 3 -14 -1 -46 -2 -72 -3 -27 -1 -48 2 -48 6 0 5 -5 5 -12 1
-14 -9 -78 -10 -78 -1 2 34 52 86 84 88 12 1 98 3 191 4 168 3 239 8 323 20
65 10 64 10 115 35 l47 24 0 74 c0 69 -26 159 -48 164 -4 0 -114 2 -245 3
-213 2 -239 4 -257 20 -13 12 -17 22 -11 29 10 12 11 16 11 44 0 9 15 27 34
39 31 20 35 20 49 5 15 -14 20 -14 64 8 27 14 52 23 56 22 4 -1 56 -3 115 -3
99 -1 111 1 155 26 57 33 75 66 57 110 -7 17 -13 38 -14 48 -4 32 -23 39 -126
43 -57 2 -113 6 -124 8 -79 15 -96 19 -96 23 0 2 11 14 25 26 14 12 27 35 29
51 4 36 31 57 60 47 27 -10 60 -6 128 18 29 10 66 17 81 17 44 -2 61 39 55
132 -3 45 -10 77 -18 82 -10 6 -10 16 3 47 11 30 16 81 17 211 l1 172 -23 1
c-13 0 -394 1 -848 1 -723 1 -830 -1 -862 -15 -64 -27 -88 -92 -62 -166 10
-31 10 -39 -3 -53 -9 -10 -21 -18 -27 -18 -14 0 -120 -109 -129 -133 -6 -16
11 -78 34 -120 6 -11 9 -20 7 -21 -2 -2 -22 -13 -45 -26 -24 -13 -43 -27 -43
-31 0 -4 -8 -10 -18 -13 -32 -10 -44 -46 -48 -145 -5 -113 -7 -133 -27 -223
-8 -37 -12 -70 -9 -73 3 -3 0 -5 -7 -5 -7 0 -10 -4 -7 -8 3 -5 -16 -35 -42
-66 -69 -85 -71 -90 -59 -136 10 -36 9 -42 -19 -77 -49 -61 -56 -80 -49 -133
8 -59 -2 -80 -52 -106 -21 -10 -41 -22 -44 -27 -3 -4 -5 -48 -4 -98 1 -85 0
-92 -22 -106 -26 -17 -41 -41 -53 -84 -7 -23 -4 -33 16 -52 33 -34 22 -63 -23
-58 -6 1 -19 -14 -29 -34 -9 -19 -22 -35 -30 -35 -7 0 -29 -28 -48 -62 -30
-53 -33 -65 -22 -78 22 -25 44 -74 41 -92 -3 -18 -18 -49 -53 -110 -26 -45
-17 -91 28 -140 44 -48 39 -64 -23 -82 -86 -25 -99 -47 -104 -168 -5 -136 -6
-138 -58 -199 -25 -29 -43 -55 -40 -57 3 -3 0 -11 -6 -18 -7 -9 -3 -19 13 -37
13 -14 25 -36 26 -49 4 -50 -40 -121 -86 -139 -24 -9 -47 -54 -57 -109 -8 -45
16 -68 76 -76 27 -4 54 -13 60 -20 10 -12 -2 -14 -73 -14 -60 0 -90 -4 -106
-16 -25 -17 -68 -94 -53 -94 6 0 8 -6 5 -13 -2 -7 2 -30 11 -50 17 -41 20
-109 6 -135 -5 -9 -29 -38 -53 -63 -25 -25 -45 -52 -46 -60 -1 -8 -4 -41 -7
-74 -3 -33 -6 -66 -7 -73 -1 -7 -19 -31 -40 -54 -50 -53 -54 -101 -12 -151 37
-45 32 -58 -21 -57 -18 1 -107 -54 -124 -76 -30 -39 -44 -98 -30 -126 14 -26
21 -86 14 -118 -4 -17 -20 -42 -36 -57 -41 -38 -58 -82 -55 -145 3 -60 17 -93
54 -126 14 -12 23 -23 21 -25 -2 -2 -34 -16 -71 -31 -106 -44 -111 -50 -113
-155 -2 -92 -10 -115 -58 -166 -34 -36 -53 -70 -52 -90 1 -11 2 -30 3 -42 1
-12 25 -46 53 -77 44 -48 48 -57 32 -62 -67 -21 -137 -73 -160 -117 -10 -20
-15 -54 -14 -97 l1 -67 -60 -61 c-33 -34 -60 -69 -61 -79 0 -10 -3 -30 -5 -46
-3 -15 3 -46 14 -70 10 -23 17 -46 17 -52 -2 -21 -16 -55 -23 -54 -66 10 -147
-101 -135 -183 2 -18 -4 -34 -19 -50 -73 -76 -83 -93 -83 -138 0 -35 8 -56 33
-93 l33 -47 -23 -9 c-72 -27 -103 -43 -120 -63 -30 -35 -80 -32 -133 9 -63 48
-95 117 -52 112 35 -4 38 1 36 58 -3 58 -12 76 -57 117 -42 37 -61 72 -67 122
-14 118 -16 123 -53 154 -20 16 -45 30 -54 30 -10 0 -18 4 -18 10 0 5 -7 7
-15 4 -16 -7 -21 16 -6 32 5 5 20 29 33 54 40 73 28 146 -29 183 -7 4 -13 15
-13 22 0 8 -4 15 -9 15 -13 0 -22 37 -27 110 -7 97 -10 106 -64 165 -28 30
-50 57 -50 58 0 2 11 18 24 36 30 40 28 84 -9 166 -14 33 -28 80 -31 105 -13
120 -25 156 -75 220 -27 35 -49 70 -49 78 0 8 9 30 20 48 29 46 31 69 9 93
-10 11 -19 24 -19 29 0 21 -134 64 -160 52 -3 -2 -24 -4 -47 -5 -23 -1 -49 -5
-57 -8 -9 -4 -18 -2 -21 3 -4 6 -13 7 -23 2 -9 -5 -27 -6 -39 -3 -39 11 -10
35 44 36 26 1 68 8 93 15 25 7 54 15 65 17 26 5 96 51 113 74 7 10 19 24 26
32 21 21 22 38 3 74 -9 17 -26 56 -37 86 -16 43 -28 59 -54 71 -19 9 -43 16
-54 16 -59 0 -67 27 -20 71 l33 29 -24 45 c-29 55 -54 78 -87 79 -36 2 -45 23
-29 63 8 18 11 33 8 33 -3 0 -1 6 5 13 15 18 9 90 -11 120 -23 35 -63 55 -123
61 -67 7 -82 10 -95 23 -8 8 -1 14 26 22 21 6 41 8 45 6 4 -2 23 26 43 64 46
86 46 129 0 178 -18 19 -37 32 -43 28 -12 -8 -99 -9 -107 -2 -8 9 23 37 41 37
21 0 44 36 41 63 -2 12 -12 43 -24 69 -19 46 -30 54 -84 62 -34 5 -37 20 -12
69 35 70 37 114 7 162 -35 56 -78 97 -99 93 -13 -2 -19 5 -21 25 -2 15 1 27 5
27 11 0 16 46 16 130 -1 104 -2 106 -54 116 -9 2 -38 13 -65 25 -46 20 -47 22
-27 31 12 6 31 29 42 52 32 69 31 102 -4 140 -59 63 -97 168 -100 271 -2 78
-14 116 -43 136 -28 21 -41 50 -46 110 -6 75 -22 106 -67 126 -49 23 -55 41
-30 95 11 24 21 52 22 63 3 24 -15 70 -31 80 -26 16 -50 87 -54 157 -4 85 -10
102 -40 122 -33 21 -54 72 -60 146 -3 36 -10 66 -16 68 -6 2 -24 15 -41 29
-30 26 -34 50 -11 68 15 12 29 71 24 103 -2 12 -21 40 -43 62 -45 45 -49 73
-20 148 20 49 20 50 -1 91 -17 35 -31 46 -97 77 -42 20 -78 38 -80 40 -5 5 23
46 58 85 49 53 49 84 2 182 -23 47 -39 93 -36 105 3 17 -1 22 -15 22 -11 0
-47 14 -80 31 l-60 32 -710 1 c-390 1 -710 -3 -710 -7z m1790 -1576 c0 -17
-82 -28 -115 -17 -28 10 -25 11 40 17 39 3 71 6 73 7 1 1 2 -2 2 -7z m4170
-16 c0 4 7 2 16 -6 14 -11 14 -13 -1 -22 -29 -16 -65 -15 -88 3 l-22 18 35 10
c22 6 40 6 48 -1 6 -5 12 -6 12 -2z m-306 -481 c19 -7 22 -44 4 -45 -7 0 -21
-2 -30 -4 -21 -4 -25 24 -6 43 14 14 12 14 32 6z m-4726 -270 c2 -12 -3 -21
-10 -21 -7 0 -19 -2 -27 -4 -14 -4 -24 28 -14 44 10 16 48 2 51 -19z m511
-577 c8 -11 6 -16 -12 -23 -12 -6 -28 -9 -34 -8 -7 1 -19 2 -25 3 -7 1 -20 6
-28 11 -13 9 -13 11 0 20 22 14 86 12 99 -3z m4745 -39 c12 -20 7 -27 -28 -34
-23 -4 -26 -1 -26 24 0 24 4 29 21 28 12 0 27 -9 33 -18z m-3934 -3 c0 -9 -6
-12 -15 -9 -8 4 -12 10 -9 15 8 14 24 10 24 -6z m-680 -566 c0 -18 -18 -9 -23
12 -4 16 -3 18 9 8 8 -6 14 -15 14 -20z m4529 5 c39 -8 14 -18 -49 -19 -56 0
-69 8 -25 17 33 7 49 7 74 2z m-4489 -658 c0 -1 -11 -3 -25 -4 -14 -1 -25 3
-25 8 0 6 5 10 10 10 6 0 10 10 10 23 0 20 1 20 15 -7 8 -15 15 -29 15 -30z
m4386 17 l28 -18 -60 -6 c-33 -3 -66 -9 -74 -14 -17 -10 -5 11 23 42 21 24 42
23 83 -4z m-1011 -487 c27 -14 54 -11 66 7 4 6 19 -2 33 -17 28 -27 46 -33 46
-16 0 6 54 9 141 9 77 -1 137 -5 132 -10 -18 -17 -95 -24 -272 -24 -161 0
-185 2 -194 17 -8 12 -7 21 2 32 16 19 13 19 46 2z m-2825 -47 c0 -5 -4 -7
-10 -4 -5 3 -10 1 -10 -6 0 -7 -3 -10 -6 -6 -8 7 4 27 17 27 5 0 9 -5 9 -11z
m210 -31 c0 -4 -9 -8 -21 -8 -11 0 -18 4 -15 8 3 5 12 9 21 9 8 0 15 -4 15 -9z
m172 -30 c-7 -7 -12 -8 -12 -4 0 5 -7 3 -15 -4 -8 -6 -19 -9 -24 -6 -16 10 -2
34 22 38 29 5 45 -8 29 -24z m1668 -1692 c-14 -14 -96 -16 -114 -3 -13 10 -3
12 53 12 44 0 67 -3 61 -9z m825 3 c8 -9 -59 -16 -125 -14 -98 3 -111 5 -106
13 5 9 222 10 231 1z m-1255 -594 c-14 -17 -45 -25 -59 -15 -8 4 0 13 20 23
36 17 56 13 39 -8z m410 -1159 c68 -4 126 -9 128 -11 2 -2 -228 -3 -512 -2
-284 0 -516 4 -516 7 0 4 37 8 82 9 45 1 83 3 85 4 5 6 619 -1 733 -7z m-910
-8 c0 -4 -11 -8 -25 -8 -14 0 -25 4 -25 8 0 4 11 8 25 8 14 0 25 -4 25 -8z
m-72 -5 c-10 -2 -26 -2 -35 0 -10 3 -2 5 17 5 19 0 27 -2 18 -5z m1248 -650
c-3 -3 -33 -7 -67 -9 -34 -2 -70 -6 -80 -9 -13 -4 -19 -1 -19 8 0 11 19 14 86
15 48 1 84 -1 80 -5z m4 -268 c22 -23 22 -25 4 -26 -10 -1 -35 -2 -54 -4 -42
-3 -55 13 -32 37 24 24 55 22 82 -7z"/>
<path d="M2717 10543 c-1 -1 -22 -4 -47 -6 -25 -3 -45 -6 -45 -7 0 -5 -49 -12
-103 -15 -36 -2 -80 2 -100 9 -30 11 -44 11 -73 1 -21 -8 -92 -13 -176 -14
-156 -1 -176 -5 -220 -50 -27 -27 -30 -34 -23 -68 14 -71 32 -102 65 -110 69
-17 135 -33 155 -36 14 -3 45 -10 70 -17 l45 -13 -39 -17 c-29 -14 -60 -17
-132 -15 -104 3 -122 -5 -148 -57 -21 -41 -20 -74 4 -126 10 -23 19 -45 20
-47 0 -3 0 -10 0 -16 0 -8 11 -9 33 -4 38 9 58 9 115 -1 38 -6 42 -9 42 -35 0
-30 -4 -32 -55 -31 -54 2 -163 -65 -166 -102 0 -6 -2 -20 -4 -30 -8 -44 48
-126 98 -146 16 -5 67 -12 114 -15 48 -2 92 -10 101 -17 8 -7 17 -11 19 -10 3
2 6 2 9 0 2 -3 -54 -4 -124 -3 -70 1 -133 -3 -139 -8 -7 -5 -13 -7 -13 -3 0
15 -60 -49 -68 -73 -12 -33 -6 -106 11 -143 26 -59 47 -62 422 -63 l340 -1 0
-23 c0 -38 -27 -48 -63 -23 -38 28 -49 27 -71 0 -18 -21 -21 -22 -288 -19
-204 2 -276 -1 -298 -11 -32 -14 -66 -79 -59 -112 3 -12 7 -32 10 -45 3 -14
17 -39 32 -56 24 -28 33 -32 87 -34 33 -1 63 -7 67 -14 10 -16 -19 -37 -53
-37 -15 0 -31 -4 -34 -10 -3 -5 -13 -10 -21 -10 -9 0 -22 -7 -30 -15 -8 -8
-24 -21 -35 -29 -21 -15 -27 -53 -16 -115 14 -78 52 -92 265 -91 92 0 181 4
199 9 48 14 62 -8 28 -45 l-26 -28 -197 -2 c-108 -1 -200 -2 -204 -3 -4 0 -20
-19 -34 -41 -32 -48 -37 -103 -12 -152 24 -50 23 -75 -6 -112 -20 -27 -23 -41
-20 -89 3 -61 32 -124 65 -145 11 -7 45 -15 77 -17 31 -3 81 -8 110 -10 37 -4
59 -1 76 10 25 16 94 26 101 15 3 -4 21 -5 42 -3 21 2 49 5 63 7 34 3 92 -25
86 -41 -8 -20 19 -15 39 7 10 11 23 20 30 20 17 0 43 -23 47 -40 3 -13 -30
-15 -242 -17 -246 -2 -268 -3 -350 -22 -25 -6 -59 -11 -76 -11 -48 0 -65 -19
-69 -77 -3 -45 1 -58 30 -101 19 -27 49 -58 67 -69 42 -25 112 -24 130 2 10
13 163 9 163 -5 0 -1 12 -3 27 -4 39 -2 41 -9 9 -40 -28 -27 -29 -27 -61 -11
-30 15 -116 22 -160 12 -74 -16 -163 -52 -179 -73 -23 -29 -20 -89 7 -179 19
-60 14 -115 -9 -115 -6 0 -7 -4 -4 -10 3 -5 2 -10 -3 -10 -16 0 -4 -80 17
-113 11 -18 38 -49 61 -69 22 -20 40 -39 40 -43 0 -3 -16 -20 -35 -37 -40 -34
-54 -57 -61 -95 -3 -14 -5 -28 -6 -32 -3 -13 15 -81 21 -81 99 -5 201 -40 201
-69 0 -5 -30 -8 -67 -8 -109 0 -119 -2 -147 -28 -21 -19 -25 -31 -22 -58 11
-81 77 -183 121 -186 47 -3 55 -4 49 -10 -3 -3 -20 -7 -37 -7 -70 -3 -122 -29
-136 -67 -22 -57 13 -178 48 -170 6 2 11 -1 11 -5 0 -9 12 -11 62 -13 15 0 30
-5 33 -10 4 -5 17 -9 30 -9 13 0 27 -4 30 -10 5 -8 -10 -15 -56 -24 -26 -5
-70 -26 -83 -39 -6 -6 -17 -33 -23 -59 -8 -38 -7 -54 3 -74 25 -47 18 -83 -25
-125 -21 -21 -36 -41 -33 -44 3 -3 1 -5 -5 -5 -14 0 -30 -40 -29 -75 1 -16 -6
-39 -14 -49 -25 -32 -47 -53 -64 -63 -9 -5 -16 -20 -16 -33 1 -14 1 -37 2 -52
0 -26 -75 -130 -135 -188 -15 -14 -27 -30 -27 -37 0 -18 -38 -35 -84 -38 -23
-1 -62 -12 -88 -24 -38 -17 -52 -31 -68 -66 -11 -24 -25 -45 -32 -48 -16 -5
-58 13 -58 25 0 14 -38 9 -53 -7 -26 -26 -126 -29 -192 -7 -72 25 -112 14
-135 -36 -16 -34 -18 -34 -167 -18 -51 5 -82 -15 -108 -70 l-18 -38 -14 28
c-27 52 -84 96 -124 96 -42 0 -86 -20 -104 -46 -9 -14 -17 -52 -19 -87 -2 -34
-4 -67 -5 -73 -2 -19 -29 -24 -45 -8 -11 10 -14 32 -12 74 1 33 0 60 -4 60 -3
0 -6 10 -7 21 -2 28 -27 54 -75 78 -33 16 -45 17 -71 9 -31 -11 -87 -48 -73
-48 4 0 0 -7 -8 -16 -18 -18 -18 -14 -20 -164 -1 -63 2 -120 7 -127 11 -15 1
-33 -19 -33 -18 0 -18 -24 1 -40 13 -11 12 -17 -7 -51 -21 -37 -21 -40 -5 -89
17 -53 15 -69 -15 -112 -25 -37 -23 -81 8 -130 25 -40 27 -49 29 -187 1 -80
-2 -158 -6 -172 -5 -18 2 -43 24 -88 24 -50 38 -66 65 -78 47 -20 71 -11 109
40 27 36 32 53 37 117 3 41 8 86 11 100 5 26 13 74 20 125 6 47 6 137 0 170
-3 17 -7 41 -9 55 -3 27 23 114 32 106 3 -3 6 -113 6 -243 1 -131 4 -242 7
-248 3 -5 12 -32 18 -60 19 -73 30 -93 64 -104 35 -13 98 2 121 28 8 9 17 36
21 61 4 24 9 48 11 52 12 19 15 62 15 193 l0 140 19 -39 c11 -21 24 -43 29
-50 9 -11 10 -36 11 -209 0 -90 21 -141 72 -181 47 -35 61 -35 102 2 43 39 63
77 62 117 -1 34 8 45 35 38 19 -5 23 -14 34 -75 6 -42 72 -114 112 -124 28 -7
90 3 98 16 3 5 8 26 10 47 5 39 12 78 15 78 11 0 18 124 9 165 -9 44 -19 111
-25 170 -2 25 -6 50 -9 57 -5 15 26 26 49 17 9 -3 16 -12 16 -20 0 -24 2 -28
20 -54 10 -15 20 -53 23 -93 7 -75 68 -265 100 -311 24 -34 72 -56 123 -56 47
0 91 45 101 104 11 63 8 83 -22 151 -9 22 -19 54 -22 70 -2 17 -6 41 -9 55 -2
14 -7 43 -10 65 -3 22 -13 59 -21 81 -17 47 -23 104 -12 104 4 0 6 8 4 18 -1
10 3 25 10 35 11 15 15 11 35 -40 12 -32 34 -69 49 -83 30 -29 45 -58 91 -175
31 -77 104 -226 125 -253 43 -57 75 -80 106 -77 17 2 36 9 41 16 61 98 69 127
42 149 -22 19 -35 47 -40 86 -2 19 -11 54 -20 80 -8 25 -16 54 -17 65 -1 10
-4 19 -7 19 -4 0 -12 24 -19 53 -8 28 -18 58 -24 65 -5 6 -7 12 -4 12 3 0 2
14 -3 30 -11 38 10 41 34 5 9 -14 13 -25 9 -25 -4 0 7 -15 24 -33 45 -48 103
-128 103 -143 0 -7 4 -14 8 -16 4 -1 25 -34 46 -73 42 -77 72 -110 127 -139
36 -19 37 -19 73 3 62 38 100 117 70 142 -8 6 -14 23 -14 38 0 15 -4 31 -9 36
-6 6 -12 22 -15 36 -5 31 -33 87 -52 107 -37 37 -81 106 -142 225 -8 16 -20
31 -28 34 -26 10 -15 33 15 33 30 0 40 -8 201 -159 35 -34 70 -61 77 -61 7 0
13 -3 13 -8 0 -4 13 -13 29 -20 33 -14 156 -110 211 -163 19 -19 42 -35 50
-36 8 -1 26 -4 40 -7 38 -9 85 -10 98 -2 13 7 11 121 -2 133 -3 3 -6 14 -6 23
0 25 -39 110 -50 110 -6 0 -10 5 -10 11 0 7 -10 20 -22 31 -68 56 -344 339
-337 344 5 3 12 -2 15 -10 3 -9 12 -16 19 -16 20 0 127 -51 161 -77 17 -13 78
-41 135 -62 57 -22 124 -51 149 -64 48 -26 89 -29 152 -8 45 15 54 26 62 71
12 75 -80 196 -192 250 -29 14 -52 28 -52 33 0 4 -5 7 -10 7 -6 0 -42 21 -82
48 l-71 47 46 3 c29 2 58 -3 79 -14 18 -10 49 -18 68 -19 32 -2 75 -8 155 -21
47 -8 158 -8 185 1 40 12 80 55 80 87 0 56 -60 133 -130 165 -19 8 -39 34 -40
49 0 8 30 12 93 12 162 1 149 -3 189 50 19 26 37 58 40 72 6 35 -21 80 -62
103 -19 11 -37 22 -40 26 -6 8 -98 45 -150 59 -19 6 -74 13 -121 16 -48 3 -93
8 -100 10 -8 3 -47 14 -87 26 -68 20 -82 30 -49 36 7 2 23 5 37 9 14 3 63 8
110 10 47 2 99 8 115 13 25 7 36 4 63 -16 17 -13 32 -21 32 -17 0 4 6 2 13 -4
8 -6 17 -8 20 -5 11 11 82 10 89 -1 5 -7 8 -6 8 2 0 6 8 9 18 6 13 -3 38 14
80 55 57 56 61 61 53 90 -22 74 -97 136 -168 138 -38 1 -107 10 -156 20 -12 2
-67 6 -122 9 -125 6 -184 13 -204 25 -10 6 84 10 251 10 283 0 307 4 327 47
15 34 14 188 -1 200 -28 22 -151 45 -245 47 -29 1 -53 3 -53 6 0 3 -17 6 -38
7 -20 0 -64 4 -97 8 -150 16 -177 17 -222 12 -18 -2 -33 1 -33 5 0 5 -9 4 -20
-2 -11 -6 -20 -7 -20 -2 0 12 63 42 105 49 11 2 144 5 297 7 266 3 277 4 307
26 45 32 63 74 65 152 2 80 -5 91 -76 108 -27 7 -49 16 -49 21 -1 5 -2 15 -3
22 -3 16 14 38 24 32 11 -7 101 32 99 42 -1 4 0 11 1 16 9 35 -6 117 -22 117
-5 0 -7 4 -4 9 3 5 0 11 -8 14 -27 11 -24 54 6 91 54 66 58 140 12 203 -21 27
-22 35 -12 57 6 14 14 26 17 26 8 0 10 22 12 110 2 137 -21 152 -239 150 -202
-2 -190 -3 -201 18 -8 16 2 17 148 18 99 0 175 5 205 14 27 7 60 14 75 16 14
1 28 2 32 3 10 2 39 96 35 116 -13 63 -19 74 -52 89 -19 9 -50 24 -71 33 -29
14 -71 17 -222 18 -102 1 -188 3 -190 3 -2 1 2 9 9 18 24 28 73 40 160 39 47
-1 93 3 103 7 9 5 17 5 17 0 0 -12 103 -6 128 7 29 15 62 64 64 95 1 14 5 26
9 26 13 0 0 84 -15 92 -23 13 -20 53 8 101 14 23 26 60 27 82 5 116 -5 128
-116 141 -66 7 -109 13 -133 18 -13 3 -45 6 -72 8 -30 2 -45 7 -40 12 12 12
35 15 153 21 149 6 210 49 209 146 -1 47 -18 76 -79 136 -24 24 -43 47 -43 53
0 5 17 18 38 29 21 11 43 25 48 33 6 7 10 47 9 89 -1 94 -19 128 -65 125 -16
-1 -30 0 -30 3 0 3 -33 6 -72 7 -93 0 -159 6 -178 15 -45 21 -76 32 -82 31 -5
-1 -8 2 -8 6 0 5 69 8 154 8 166 0 192 6 221 51 9 13 18 41 20 61 2 20 5 39 5
42 4 10 -1 86 -6 102 -3 9 -15 20 -27 24 -34 11 -100 12 -121 2 -11 -6 -22 -6
-28 0 -6 6 3 12 26 16 98 19 145 56 152 123 3 26 7 54 9 61 3 6 1 12 -4 12 -4
0 -6 10 -4 23 4 21 -33 84 -44 73 -2 -2 -16 2 -30 9 -15 8 -31 12 -37 9 -6 -3
0 4 13 15 13 12 31 21 40 21 40 1 56 28 59 106 4 70 2 76 -21 98 -14 13 -28
22 -31 19 -2 -3 -11 -1 -18 3 -7 5 -24 10 -38 12 -47 6 -305 10 -314 4 -5 -3
-28 -7 -50 -8 -39 -3 -41 -2 -41 26 -1 34 -17 32 217 31 105 -1 135 2 178 19
58 23 88 25 126 8 23 -11 28 -10 43 8 24 30 20 130 -9 188 -22 46 -71 92 -100
95 -22 2 -671 6 -673 4z m-355 -326 c9 -10 25 -11 67 -5 30 5 82 8 115 6 l61
-3 -40 -18 c-61 -29 -122 -29 -187 -3 -47 19 -58 21 -62 9 -3 -8 -11 -11 -16
-8 -15 10 8 35 31 35 10 0 24 -6 31 -13z m368 3 c9 0 4 -7 -12 -18 -16 -9 -28
-20 -28 -24 0 -15 -19 -8 -40 14 -11 12 -20 24 -20 27 0 5 35 6 100 1z m16
-305 c-11 -8 -39 -22 -63 -31 -39 -15 -45 -15 -61 -2 -27 24 -61 28 -71 10 -8
-14 -12 -14 -25 -3 -12 10 -14 17 -5 27 9 10 41 14 128 14 103 -1 114 -2 97
-15z m520 -5 l29 -12 -24 -13 c-25 -13 -73 -10 -101 5 -12 7 -7 12 20 23 19 9
38 13 41 11 3 -2 19 -8 35 -14z m-148 -27 c16 -15 9 -43 -10 -44 -7 0 -21 -2
-31 -4 -10 -2 -21 3 -23 10 -9 22 -33 26 -58 10 -22 -15 -24 -14 -29 5 -3 12
1 24 11 30 25 14 124 10 140 -7z m-318 -277 c0 -3 -4 -8 -10 -11 -5 -3 -10 -1
-10 4 0 6 5 11 10 11 6 0 10 -2 10 -4z m164 -11 c7 -20 -32 -61 -46 -47 -16
16 -16 47 1 54 26 11 39 9 45 -7z m-586 -15 c11 -18 9 -21 -14 -30 -39 -15
-53 2 -31 38 12 18 30 15 45 -8z m655 -299 c-4 -3 -20 -17 -34 -29 -22 -19
-27 -21 -32 -8 -8 21 17 44 48 44 15 0 23 -3 18 -7z m288 -362 c-29 -12 -120
-14 -150 -4 -45 14 -17 20 76 16 75 -2 92 -5 74 -12z m-822 7 c-4 -3 -34 -7
-171 -22 -29 -3 -38 0 -38 11 0 12 19 15 107 15 58 0 104 -2 102 -4z m470
-321 c-16 -15 -139 -27 -139 -13 0 4 -6 5 -14 2 -8 -3 -17 -1 -20 4 -3 6 32
10 86 11 51 1 90 -1 87 -4z m395 -302 c-10 -7 -27 -13 -38 -14 -12 0 -33 -2
-48 -3 -48 -3 -31 11 25 20 74 14 83 13 61 -3z m-1004 -8 c0 -10 -54 -54 -62
-49 -10 6 -11 47 0 41 4 -3 16 -1 27 4 24 9 35 11 35 4z m593 -340 c9 -4 17
-10 17 -14 0 -12 -68 -12 -75 -1 -15 24 17 32 58 15z m-493 -357 c-22 -18 -60
-12 -67 9 -6 17 49 32 70 19 17 -10 17 -12 -3 -28z m430 -228 c25 -16 53 -30
62 -30 9 0 20 -5 23 -11 5 -7 -14 -10 -59 -8 -36 1 -68 0 -70 -2 -11 -11 -95
4 -100 17 -9 23 42 58 89 63 6 0 30 -13 55 -29z m-505 -36 c-39 -16 -187 -13
-192 3 -3 9 21 13 89 15 51 2 102 1 113 -1 17 -4 16 -6 -10 -17z m-322 -23 c7
-28 -30 -36 -44 -9 -6 11 -8 26 -5 34 8 20 42 2 49 -25z m1291 25 c-6 -14 -52
-31 -61 -22 -14 14 9 36 36 36 22 0 29 -4 25 -14z m-837 -306 c-4 -27 -11 -32
-47 -34 -43 -3 -49 19 -14 49 21 18 32 21 46 14 10 -5 16 -18 15 -29z m820 26
c17 -7 17 -56 1 -57 -43 -4 -127 -1 -137 5 -13 9 -15 38 -2 52 10 9 113 9 138
0z m-960 -22 c6 -19 -40 -33 -65 -20 -18 9 -20 14 -10 24 15 15 70 12 75 -4z
m225 -284 c26 -24 61 -26 83 -4 12 13 19 14 30 4 8 -7 15 -19 15 -26 0 -14
-10 -16 -90 -16 -75 0 -81 2 -89 25 -16 41 14 51 51 17z m417 -17 c9 -1 39 -5
66 -8 28 -4 55 -11 60 -17 7 -8 6 -9 -2 -4 -6 3 -33 2 -58 -4 -81 -18 -132 3
-117 48 3 10 7 10 19 0 8 -7 22 -13 32 -15z m271 -3 c21 -17 23 -21 10 -30
-26 -18 -100 13 -100 42 0 16 65 7 90 -12z m-656 -340 c31 -31 33 -40 4 -40
-27 0 -58 27 -58 51 0 23 22 19 54 -11z m-372 5 c32 -13 7 -27 -39 -21 -50 6
-58 10 -49 24 6 11 61 9 88 -3z m432 -37 c-3 -4 -9 -8 -15 -8 -5 0 -9 4 -9 8
0 5 7 9 15 9 8 0 12 -4 9 -9z m-477 -264 c-3 -3 -12 -4 -19 -1 -8 3 -5 6 6 6
11 1 17 -2 13 -5z m434 -14 c10 -6 19 -15 19 -20 0 -16 -47 -22 -71 -10 l-22
13 24 13 c30 16 26 16 50 4z m-268 -863 c-3 -5 -8 -5 -12 0 -3 5 -17 9 -30 9
-32 -1 -37 18 -9 31 19 9 26 7 40 -10 9 -12 14 -25 11 -30z m249 -139 c-6 -6
-19 -7 -29 -3 -17 7 -17 8 2 15 24 9 41 2 27 -12z m-902 -7 c0 -5 43 -52 95
-107 120 -124 148 -155 143 -159 -2 -2 -31 22 -65 53 -34 31 -81 73 -104 92
-60 49 -83 77 -90 110 -5 21 -3 27 7 23 8 -3 14 -8 14 -12z m346 -64 c4 -3 -4
-4 -16 -2 -30 6 -40 16 -12 12 12 -2 24 -6 28 -10z m43 -21 c8 -9 8 -16 2 -20
-6 -4 -15 3 -21 14 -12 23 2 27 19 6z m63 -42 c-4 -10 -33 -6 -46 6 -4 5 -5
13 -1 20 8 13 52 -11 47 -26z m-1827 -258 c1 -104 -10 -127 -44 -98 -22 18
-23 15 7 102 3 8 6 17 7 20 1 3 5 22 9 43 13 59 21 34 21 -67z m570 -45 c12
-1 14 -81 2 -81 -17 -1 -57 39 -57 57 0 25 7 32 28 28 9 -2 22 -4 27 -4z m908
-145 c4 -10 1 -13 -9 -9 -15 6 -19 23 -5 23 5 0 11 -7 14 -14z m-1187 -176 c1
-23 -3 -30 -17 -30 -23 0 -24 4 -3 24 8 9 11 16 5 16 -6 0 -11 5 -11 10 0 6 6
10 13 10 7 0 13 -13 13 -30z"/>
<path d="M15719 9823 c-40 -17 -49 -48 -49 -172 l0 -107 583 2 c320 1 582 2
582 3 0 2 14 5 30 7 17 3 37 7 45 11 18 8 27 10 40 12 6 1 10 46 10 114 0 112
0 114 -26 128 -36 19 -1170 21 -1215 2z"/>
<path d="M15730 9440 c0 -4 -8 -6 -19 -3 -33 9 -92 -62 -85 -102 2 -11 6 -34
8 -52 6 -45 36 -91 66 -102 23 -9 23 -9 3 -10 -12 -1 -28 -9 -35 -19 -7 -9
-24 -25 -38 -34 -15 -9 -26 -26 -27 -39 0 -13 -3 -53 -7 -88 -4 -53 -2 -69 17
-101 l22 -38 -24 -42 c-18 -32 -21 -49 -16 -83 3 -23 8 -57 10 -76 7 -58 29
-71 129 -75 65 -3 92 -9 107 -22 34 -31 24 -44 -36 -45 -30 -1 -58 -3 -62 -4
-5 -1 -23 -6 -41 -10 -42 -10 -119 -86 -130 -128 -16 -56 45 -132 113 -143 45
-7 90 -41 76 -58 -5 -6 -38 -11 -72 -10 -59 0 -93 -11 -83 -28 3 -4 -5 -29
-16 -56 -28 -64 -29 -80 -14 -112 31 -61 93 -91 196 -95 40 -1 67 -8 85 -21
45 -34 39 -41 -42 -41 -41 -1 -81 -5 -88 -11 -6 -6 -28 -14 -47 -19 l-35 -9 1
-92 c2 -92 9 -116 49 -156 22 -22 16 -70 -10 -74 -26 -5 -65 -49 -66 -76 -3
-68 -8 -131 -13 -152 -5 -18 -2 -24 9 -24 9 0 34 -9 57 -21 35 -18 45 -19 67
-9 49 23 119 27 192 10 53 -12 58 -11 79 8 17 16 33 20 67 17 24 -1 63 3 86 9
51 15 86 12 156 -13 37 -13 63 -16 82 -11 15 5 98 9 185 9 86 1 165 6 174 11
10 5 19 7 22 5 11 -12 70 53 77 85 16 75 -48 172 -121 186 -60 11 -78 11 -78
2 0 -5 -3 -7 -8 -4 -4 2 -28 7 -52 11 -60 9 -71 21 -41 46 17 14 31 18 45 13
24 -8 96 -9 141 -2 98 17 135 79 111 186 -4 18 -10 31 -14 28 -3 -3 -10 -2
-16 3 -38 31 -166 44 -447 44 -196 1 -216 2 -207 17 27 42 56 47 274 48 115 1
220 4 233 6 39 9 95 28 116 41 11 7 32 15 46 19 24 5 25 8 23 81 -1 71 -16
111 -34 100 -5 -3 -11 -1 -14 4 -4 5 -17 8 -31 6 -15 -1 -29 4 -34 13 -7 12
-30 16 -110 16 -55 1 -101 5 -101 9 0 5 -5 5 -12 1 -16 -10 -118 -11 -118 -1
0 5 -5 5 -12 1 -21 -13 -288 -11 -288 2 0 12 29 29 43 25 5 -1 35 -2 68 -2 47
-1 63 3 73 17 12 16 35 18 269 18 l255 1 27 25 c36 34 53 70 45 100 -27 109
-31 118 -63 124 -17 3 -39 13 -48 22 -16 14 -65 17 -396 18 -208 1 -386 6
-395 10 -21 10 -22 24 -4 49 12 15 16 16 40 3 36 -18 117 -10 171 18 24 13 30
13 43 0 12 -13 17 -13 36 0 18 11 75 14 297 15 151 0 274 1 274 2 0 0 13 2 30
4 16 2 35 11 41 19 13 19 13 166 -1 167 -5 1 -27 10 -47 20 -40 21 -78 25 -78
9 0 -13 -71 -25 -135 -23 -93 4 -150 3 -170 -1 -11 -2 -29 1 -40 7 -19 9 -55
42 -55 50 0 2 82 3 183 3 190 1 267 7 267 24 0 6 7 10 15 10 21 0 47 57 47
103 -2 102 -20 118 -141 123 -120 4 -211 14 -211 23 0 4 32 8 70 9 39 1 85 8
103 16 18 8 52 17 77 19 66 6 97 25 113 66 18 47 21 121 4 122 -87 5 -127 12
-152 23 -94 44 -83 43 -485 40 -212 -2 -401 -4 -420 -4 -19 0 -56 2 -82 4 -27
2 -48 1 -48 -4z m260 -644 c0 -5 6 -3 14 3 12 10 19 8 35 -8 31 -31 17 -51
-38 -52 -132 -3 -158 6 -123 44 16 17 32 22 67 22 25 0 45 -4 45 -9z m378 -21
c5 -5 -29 -41 -37 -38 -3 1 -15 0 -26 -2 -49 -11 -72 -12 -95 -3 l-25 9 30 25
c27 23 36 25 89 20 33 -3 61 -8 64 -11z m-454 -592 c4 -4 21 -8 39 -9 18 -1
40 -2 50 -3 10 -1 16 -5 13 -9 -3 -5 -31 -8 -63 -7 -32 1 -66 -2 -77 -7 -26
-14 -42 5 -21 26 17 17 46 21 59 9z"/>
<path d="M9203 9014 c-24 -22 -27 -22 -54 -8 -36 18 -106 20 -126 4 -2 -2 -7
-4 -13 -5 -5 -1 -13 -4 -17 -5 -5 -1 -12 -2 -17 -1 -20 4 -66 -22 -71 -40 -4
-10 -11 -19 -17 -19 -6 0 -9 -3 -5 -6 3 -3 2 -17 -4 -31 -19 -51 -20 -82 -2
-91 10 -5 66 -9 126 -8 59 0 107 -3 107 -7 0 -5 5 -5 12 -1 19 12 348 11 348
-1 0 -7 3 -7 8 0 8 12 211 13 230 2 6 -5 12 -4 12 0 0 10 101 10 117 0 6 -4
14 -3 17 2 6 9 50 6 68 -5 4 -3 8 -1 8 3 0 13 103 10 112 -2 5 -7 8 -7 8 0 0
6 23 10 53 10 72 -2 82 2 102 39 13 24 17 47 13 91 -8 99 22 93 -490 94 -244
0 -456 2 -471 5 -20 2 -36 -4 -54 -20z"/>
<path d="M9737 8674 c-1 -1 -92 -4 -202 -7 -110 -4 -211 -9 -225 -12 -14 -4
-97 -8 -185 -10 -190 -5 -200 -7 -231 -40 -26 -29 -27 -30 -25 -94 2 -64 27
-87 112 -101 38 -7 76 -9 84 -6 8 3 17 1 20 -4 3 -6 15 -6 29 0 13 5 26 7 29
4 7 -7 59 -17 82 -16 29 2 90 9 90 12 0 3 93 9 203 13 61 2 112 0 112 -4 0
-13 -32 -49 -53 -61 -14 -7 -23 -5 -37 7 -28 25 -51 24 -93 -3 -20 -14 -56
-27 -80 -29 -82 -8 -117 -8 -117 -1 0 4 -13 3 -29 -2 -15 -4 -34 -4 -42 0 -7
5 -20 5 -28 1 -9 -4 -29 -5 -46 -1 -16 3 -47 3 -67 -1 -20 -3 -42 -2 -49 2 -8
4 -18 5 -24 1 -5 -4 -19 -7 -30 -7 -26 1 -55 -45 -59 -93 -4 -40 14 -93 38
-117 12 -12 13 -22 4 -45 -5 -17 -13 -30 -17 -30 -4 0 -12 -10 -17 -22 -22
-52 -1 -105 58 -144 l44 -29 575 0 c550 0 577 1 605 20 59 38 67 64 39 119 -8
15 -15 37 -15 47 0 11 -7 30 -16 44 -14 21 -14 26 4 62 24 47 25 50 12 66 -6
6 -19 24 -31 40 -15 19 -29 27 -52 27 -18 0 -45 9 -61 19 -23 15 -34 17 -52 9
-17 -8 -31 -8 -49 0 -14 6 -35 8 -47 4 -20 -6 -63 -7 -115 -3 -23 2 -15 49 9
57 32 10 108 11 108 1 0 -5 5 -5 10 -2 6 4 52 6 103 6 105 -1 132 9 159 57 39
71 40 143 1 212 -30 54 -41 58 -77 35 -21 -14 -27 -14 -62 1 -29 12 -73 17
-167 18 -71 0 -129 0 -130 0z m14 -261 c13 -15 12 -16 -9 -11 -15 4 -26 0 -36
-14 -16 -22 -38 -16 -34 10 6 35 56 44 79 15z m-208 -297 c-5 -23 -6 -24 -126
-21 -67 1 -124 3 -127 4 -14 7 62 23 118 26 35 2 68 8 75 13 17 14 51 19 58 9
3 -4 4 -19 2 -31z m432 7 c-2 -10 -4 -21 -4 -24 -1 -3 -31 -5 -67 -5 -57 0
-64 1 -48 13 10 7 23 13 28 14 23 1 48 8 54 13 13 14 40 5 37 -11z m-765 -4
c0 -12 -41 -22 -101 -24 -30 -1 -66 -8 -78 -14 -13 -7 -26 -10 -29 -6 -9 9 -9
39 0 45 12 9 208 8 208 -1z"/>
<path d="M9069 7695 c-30 -6 -63 -14 -73 -18 -11 -5 -15 -3 -10 5 4 6 3 8 -3
5 -5 -3 -25 -9 -44 -12 -47 -8 -69 -33 -70 -81 -2 -79 -1 -83 44 -105 23 -12
44 -21 47 -20 4 2 30 -1 125 -15 16 -3 876 -6 987 -4 15 0 33 6 40 13 7 8 26
13 41 13 48 -3 59 26 60 147 1 33 -5 63 -12 70 -16 16 -1049 18 -1132 2z"/>
<path d="M10117 7359 c-15 -4 -280 -8 -589 -8 -593 -2 -576 0 -622 -46 -9 -9
-16 -14 -16 -12 0 3 -13 -6 -29 -21 -28 -24 -29 -27 -15 -54 23 -44 67 -61
161 -60 88 0 101 -9 64 -42 -12 -11 -42 -19 -83 -22 -73 -5 -102 -22 -131 -78
-27 -52 -29 -95 -5 -129 25 -35 57 -48 128 -52 30 -2 69 -9 85 -16 34 -14 112
-19 135 -8 38 18 130 22 510 24 223 1 415 5 428 9 33 11 46 43 48 115 2 66 -8
103 -38 133 -31 31 -52 37 -72 22 -23 -16 -46 -3 -46 28 0 17 6 19 56 17 51
-3 59 0 81 25 20 23 24 38 22 85 -3 85 -18 105 -72 90z m-355 -219 c61 -12 66
-15 57 -32 -8 -15 -14 -17 -24 -8 -21 17 -55 21 -55 5 0 -30 -82 -28 -113 4
l-21 20 34 15 c18 7 38 13 44 12 6 -1 41 -8 78 -16z m-237 -4 c18 -13 17 -15
-21 -26 -33 -10 -46 -10 -64 0 -23 12 -23 13 -5 26 24 18 66 18 90 0z m-185
-17 c0 -13 -42 -23 -105 -24 -58 -2 -97 11 -76 25 15 8 181 8 181 -1z"/>
<path d="M15663 7111 c-2 -9 -9 -24 -14 -33 -5 -9 -12 -35 -15 -57 -6 -37 -3
-46 36 -96 35 -45 48 -55 74 -56 130 -3 966 1 984 6 40 9 67 15 102 21 40 7
90 57 90 89 -1 44 -28 118 -46 129 -13 7 -193 11 -612 12 -535 1 -594 -1 -599
-15z"/>
<path d="M16556 6843 c-4 -4 -195 -8 -424 -8 l-417 0 -35 -24 c-36 -26 -51
-45 -58 -71 -6 -27 -2 -74 8 -84 6 -6 10 -20 10 -33 0 -56 55 -108 86 -82 21
17 175 18 257 2 116 -23 120 -24 129 -29 4 -3 14 -2 21 3 6 4 17 8 22 10 6 1
21 5 35 8 14 4 68 6 120 5 110 -2 116 -2 353 4 201 4 211 7 255 82 38 65 16
176 -41 201 -21 9 -86 9 -132 -1 -11 -2 -30 3 -43 10 -18 12 -86 14 -99 3 -8
-5 -29 -4 -34 3 -3 5 -9 5 -13 1z"/>
<path d="M9974 6749 c-15 -17 -26 -20 -69 -15 -27 3 -162 5 -300 5 -137 0
-335 1 -440 2 -171 1 -196 -1 -247 -21 -31 -11 -61 -27 -67 -34 -18 -22 -19
-58 -1 -106 9 -25 15 -50 13 -56 -8 -23 63 -45 142 -44 28 0 284 1 570 2 446
0 524 3 550 16 38 19 85 63 79 73 -3 5 -7 36 -11 71 -8 92 -10 95 -97 100 -42
3 -82 10 -89 16 -11 9 -18 7 -33 -9z"/>
<path d="M15738 6478 c-75 -10 -110 -43 -124 -114 -5 -28 32 -148 51 -168 19
-19 19 -30 -1 -47 -19 -16 -15 -76 9 -129 17 -39 26 -67 33 -107 3 -16 10 -30
16 -32 6 -2 -9 -13 -33 -25 -24 -13 -52 -37 -63 -55 -20 -35 -24 -117 -6 -135
5 -5 10 -17 10 -26 0 -8 14 -31 30 -50 29 -34 45 -79 18 -52 -8 8 -16 6 -30
-11 -17 -19 -19 -32 -13 -102 7 -87 22 -121 59 -131 14 -3 73 -7 133 -9 59 -1
108 -4 108 -5 0 -1 18 -3 40 -5 22 -2 56 -6 75 -10 73 -14 124 -10 165 11 22
12 51 20 65 18 14 -2 132 -4 263 -4 259 -1 253 -3 316 59 26 25 42 68 43 116
2 56 -17 75 -82 82 -50 5 -157 49 -146 60 2 2 18 7 35 9 49 8 164 52 173 66 4
7 8 20 9 28 6 75 5 81 -18 104 -13 14 -32 24 -41 24 -9 0 -48 3 -87 8 -38 4
-89 8 -112 8 -24 1 -43 5 -43 9 0 5 -5 5 -12 1 -6 -4 -8 -3 -5 3 4 6 59 9 139
8 160 -2 187 8 224 89 13 28 24 56 24 62 0 6 -14 31 -30 56 -31 46 -69 65 -89
45 -6 -6 -11 -8 -11 -4 0 3 -11 2 -25 -3 -20 -8 -29 -6 -46 11 -11 11 -18 23
-15 28 3 4 31 13 63 21 49 11 65 20 106 64 42 44 48 55 44 82 -7 44 -34 73
-92 99 -42 19 -70 23 -156 24 -58 1 -121 6 -140 11 -19 6 -68 13 -109 16 -102
9 -666 11 -722 2z m272 -332 c14 -2 28 -5 33 -5 4 -1 7 -4 7 -8 0 -5 -63 -8
-140 -8 -135 0 -140 1 -140 21 0 11 6 21 13 22 6 1 32 5 57 10 33 6 58 3 95
-10 28 -10 61 -20 75 -22z m394 22 c19 -31 -6 -39 -123 -41 -116 -2 -146 6
-63 18 27 3 62 15 78 26 35 23 92 22 108 -3z m-249 -38 c-4 -6 -85 -3 -92 4
-3 2 18 4 46 3 27 0 48 -3 46 -7z m135 -603 c-16 -10 -47 -18 -70 -19 -41 0
-66 11 -42 19 7 3 19 11 27 19 27 27 58 33 87 16 l28 -16 -30 -19z m320 33 c0
-12 3 -11 -75 -12 -83 -1 -107 4 -60 11 72 11 135 11 135 1z m-652 -33 c4 -22
-42 -40 -83 -33 -29 6 -69 39 -59 49 3 3 35 4 72 3 55 -1 67 -4 70 -19z"/>
<path d="M8845 6381 c-24 -4 -61 -42 -70 -72 -4 -12 -4 -45 0 -74 7 -61 27
-84 98 -110 50 -19 70 -35 42 -35 -16 0 -97 -49 -103 -63 -2 -4 -10 -14 -18
-22 -16 -16 -27 -75 -15 -75 5 0 12 -15 16 -32 4 -18 9 -36 10 -40 1 -5 3 -13
4 -19 1 -10 30 -9 98 6 20 5 38 3 46 -3 7 -6 41 -15 76 -21 35 -6 69 -15 76
-21 9 -8 20 -7 40 2 20 9 31 9 46 0 16 -10 21 -8 35 12 13 22 19 23 40 14 13
-6 24 -17 24 -25 0 -11 6 -11 30 2 22 12 39 13 63 7 17 -5 136 -7 262 -5 127
2 248 4 270 3 22 0 50 5 62 12 18 9 26 8 40 -4 20 -17 58 -15 82 5 18 15 30
16 48 4 6 -4 18 -5 26 -1 12 4 15 26 15 102 1 98 -5 124 -30 128 -7 1 -39 7
-70 13 -31 7 -66 13 -77 14 -14 1 -19 7 -17 22 2 16 11 20 47 22 24 1 47 2 51
2 19 2 35 61 33 124 -2 70 -19 117 -42 117 -7 0 -13 3 -13 8 0 7 -1188 11
-1225 3z m1045 -258 c0 -11 -63 -26 -118 -28 -35 -2 -69 -8 -75 -14 -16 -16
-30 -13 -23 5 3 8 2 12 -4 9 -6 -3 -10 0 -10 9 0 8 6 16 12 18 15 5 218 6 218
1z m75 -21 c9 -35 -1 -39 -30 -12 -32 30 -32 40 -1 38 17 -2 27 -10 31 -26z
m-842 -7 c4 -8 2 -17 -3 -20 -6 -4 -10 -1 -10 4 0 6 -8 11 -17 11 -15 0 -16 2
-3 10 21 13 27 12 33 -5z"/>
<path d="M9898 5770 c-29 -22 -74 -27 -81 -7 -3 9 -8 9 -21 -2 -15 -13 -21
-13 -39 -1 -25 15 -154 15 -173 -1 -6 -5 -13 -6 -16 -4 -3 3 -17 1 -32 -5 -19
-7 -38 -6 -72 6 -44 15 -127 16 -150 1 -13 -8 -237 -2 -309 8 -38 6 -56 3 -82
-10 -33 -18 -74 -70 -91 -115 -12 -32 5 -87 42 -130 31 -37 32 -49 8 -76 -37
-41 -79 -115 -77 -139 2 -34 29 -73 58 -82 36 -11 93 0 118 23 17 16 39 19 39
5 0 -17 39 -19 61 -3 22 15 88 19 98 5 6 -8 36 -13 91 -18 14 -1 34 4 45 12
27 16 95 25 109 14 6 -5 14 -10 19 -10 4 -1 8 -1 10 -2 23 -7 51 -9 280 -23
20 -1 37 2 37 6 0 4 8 8 18 8 10 0 23 5 29 11 20 20 74 19 105 -2 19 -14 38
-19 61 -16 46 7 61 11 67 19 6 8 67 21 94 20 35 -2 48 24 49 102 1 68 -1 75
-30 111 l-32 38 32 45 c29 40 32 51 31 110 -1 41 -6 68 -13 70 -6 2 -25 15
-40 28 -35 29 -61 30 -84 4 -17 -20 -47 -27 -47 -11 0 5 -12 11 -27 14 -16 3
-35 8 -44 12 -8 3 -27 -3 -41 -15z m-145 -259 c9 -1 17 -7 17 -15 0 -10 -19
-13 -80 -13 -78 1 -96 7 -65 24 13 8 39 8 128 4z m-373 -26 c0 -8 -4 -15 -9
-15 -13 0 -22 16 -14 24 11 11 23 6 23 -9z m-322 -27 c-3 -25 -34 -36 -52 -18
-8 8 -6 15 8 26 29 21 48 18 44 -8z"/>
<path d="M6769 5621 c-8 -2 -34 -19 -58 -38 -46 -35 -71 -32 -71 8 0 15 -8 19
-38 19 -24 0 -45 -7 -55 -17 -14 -17 -29 -57 -36 -101 -2 -12 -49 -13 -56 -2
-3 6 -7 29 -7 51 l0 41 -57 -5 c-31 -2 -74 -14 -95 -25 l-40 -22 -42 25 c-53
31 -85 32 -121 1 l-28 -24 -1 -251 c-1 -138 -5 -258 -8 -267 -4 -10 -15 -14
-33 -12 l-28 3 2 95 c3 144 14 244 32 309 9 28 6 42 -15 88 -20 42 -30 53 -43
47 -9 -3 -34 -10 -56 -14 -23 -5 -48 -18 -60 -33 -19 -24 -22 -25 -47 -11 -16
8 -28 19 -28 23 0 5 -8 8 -17 7 -10 -2 -28 3 -40 11 -20 13 -23 12 -34 -9 -7
-13 -13 -30 -14 -38 0 -11 -9 -14 -30 -12 -16 2 -32 7 -35 11 -11 17 -95 51
-112 45 -10 -3 -32 -35 -49 -72 -30 -65 -31 -71 -31 -207 0 -140 6 -235 27
-398 3 -26 -1 -47 -12 -63 -14 -21 -16 -72 -15 -392 0 -338 3 -419 18 -483 8
-34 12 -61 13 -86 1 -32 49 -56 74 -38 37 27 54 144 55 365 1 170 3 206 16
219 15 14 16 -6 16 -212 0 -125 0 -229 0 -232 0 -3 7 -19 16 -36 8 -17 13 -40
11 -51 -8 -27 30 -40 66 -22 15 8 28 19 28 24 1 6 2 13 3 18 1 4 6 30 10 57 4
28 11 54 14 60 11 17 10 99 -1 120 -6 11 -10 23 -9 28 1 4 -2 7 -8 7 -5 0 -10
17 -10 37 0 28 7 43 27 60 14 13 30 23 35 23 10 0 10 2 12 -185 1 -82 6 -160
10 -173 16 -48 100 -7 113 56 2 9 5 184 6 389 2 369 2 371 25 402 12 17 26 31
31 31 4 0 7 -165 7 -367 -1 -282 2 -379 13 -417 7 -28 16 -67 20 -86 6 -33 9
-35 40 -32 45 3 56 14 59 54 1 19 5 45 8 58 3 14 6 30 6 37 2 24 17 2 17 -25
0 -31 4 -46 19 -85 7 -16 12 -34 12 -42 0 -26 73 -35 103 -12 18 12 41 117 26
117 -5 0 -4 11 1 25 5 13 5 27 1 29 -5 3 -6 20 -2 37 4 22 13 33 28 35 29 5
40 -32 38 -119 -1 -37 2 -70 7 -73 4 -3 6 -9 4 -13 -6 -9 53 -47 87 -55 26 -6
30 -3 44 33 9 22 20 38 24 35 5 -3 9 0 9 6 0 6 5 8 10 5 6 -3 10 0 10 7 0 7
16 -4 36 -24 40 -43 80 -50 107 -20 14 16 16 59 16 367 0 229 3 360 10 378 6
16 9 32 6 37 -3 5 0 10 5 12 7 2 11 115 11 338 1 322 2 336 21 357 16 17 21
38 23 103 2 45 7 86 13 92 7 7 7 20 0 38 -9 28 -24 33 -59 21z m-547 -853 c0
-128 -1 -237 -1 -243 -4 -27 -29 44 -29 82 -1 25 -8 58 -16 75 -14 27 -14 33
0 60 24 46 33 135 17 161 -14 22 -13 48 3 78 8 17 18 28 21 25 3 -3 5 -110 5
-238z m414 191 c5 -9 8 -214 4 -309 l-1 -35 -17 35 c-9 19 -20 37 -23 40 -3 3
-12 30 -19 60 -17 70 -15 178 4 208 7 12 45 12 52 1z m-9 -935 c-3 -3 -2 -17
3 -29 11 -28 -7 -39 -28 -18 -17 16 -6 53 15 53 9 0 14 -3 10 -6z"/>
<path d="M5265 5550 c-4 -11 -11 -18 -16 -15 -5 4 -9 -1 -9 -9 0 -9 -4 -16
-10 -16 -5 0 -9 -3 -8 -7 1 -5 -5 -21 -13 -38 -11 -24 -14 -148 -16 -650 -1
-341 -4 -638 -6 -660 -5 -45 9 -85 30 -85 8 0 11 -4 8 -10 -3 -5 -1 -10 5 -10
6 0 8 -12 3 -32 -9 -45 -6 -134 6 -157 12 -21 62 -32 85 -19 9 5 16 17 16 27
0 10 10 31 22 46 25 32 25 41 14 515 -27 1120 -22 1017 -48 1083 -24 60 -51
76 -63 37z"/>
<path d="M15977 5223 c-1 0 -42 -4 -92 -7 -49 -3 -102 -8 -117 -11 -16 -3 -39
-7 -52 -9 -37 -7 -64 -24 -71 -46 -10 -33 -8 -172 3 -202 18 -45 72 -78 129
-78 28 0 66 -8 89 -19 28 -14 41 -16 46 -8 5 8 11 9 16 2 9 -13 152 -14 152 0
0 7 3 7 8 0 4 -6 39 -10 77 -10 39 0 73 4 77 10 5 6 8 6 8 -1 0 -7 21 -9 63
-5 77 7 142 5 184 -4 24 -5 41 -2 66 14 30 18 50 21 156 21 127 0 181 14 181
45 0 8 3 15 8 15 4 0 13 12 19 27 9 19 10 30 2 40 -6 7 -8 13 -4 13 4 0 3 6
-2 13 -6 6 -13 28 -17 48 -4 21 -16 49 -28 64 -18 24 -26 26 -62 21 -49 -8
-153 -9 -181 -2 -11 2 -49 12 -84 21 -78 20 -144 22 -149 5 -3 -9 -10 -6 -21
9 -9 12 -26 24 -36 26 -11 2 -22 4 -25 5 -3 1 -25 1 -50 0 -98 -5 -140 -5
-140 0 0 5 -148 8 -153 3z"/>
<path d="M9467 5154 c-3 -3 -33 -8 -66 -10 -34 -3 -75 -13 -93 -23 -32 -18
-45 -19 -96 -6 -13 3 -34 0 -46 -8 -15 -9 -57 -13 -150 -12 -104 1 -133 -2
-150 -15 -11 -9 -29 -19 -38 -23 -29 -10 -50 -53 -43 -87 4 -16 10 -30 14 -30
4 0 7 -10 6 -22 -3 -37 5 -48 39 -48 17 0 67 -7 111 -16 54 -11 142 -16 270
-17 l190 -2 0 -30 0 -30 -165 -2 c-155 -1 -198 -4 -260 -18 -14 -3 -50 -8 -80
-11 -30 -3 -59 -10 -64 -15 -28 -26 -26 -120 4 -186 23 -50 46 -68 70 -53 6 4
31 5 53 3 23 -3 291 -6 595 -7 550 -3 554 -3 585 19 31 20 32 24 34 98 2 74 1
78 -28 108 -28 29 -34 31 -72 24 -23 -4 -60 -11 -82 -14 -61 -10 -165 21 -165
49 0 5 9 6 20 3 11 -3 17 -9 14 -14 -9 -15 7 -10 51 16 25 14 49 39 59 60 13
28 21 33 34 27 60 -29 155 63 154 151 -1 42 -27 91 -43 81 -5 -3 -15 -1 -22 4
-7 5 -26 14 -44 20 -25 8 -36 7 -55 -6 -25 -18 -78 -25 -78 -10 0 12 -68 40
-80 33 -17 -10 -181 -7 -194 5 -10 7 -37 9 -85 4 -47 -4 -76 -3 -84 5 -8 6
-17 8 -20 5z"/>
<path d="M15703 4765 c-48 -13 -95 -72 -95 -118 0 -39 44 -122 72 -137 10 -6
30 -10 44 -10 14 0 27 -4 30 -8 3 -5 -5 -8 -17 -7 -35 3 -85 -16 -108 -41 -44
-47 -14 -158 53 -195 11 -6 29 -3 55 8 47 20 168 25 231 9 68 -16 200 -11 272
12 8 3 150 7 315 9 333 5 343 7 383 69 33 51 23 82 -55 171 -16 18 -25 20 -54
14 -49 -10 -89 -6 -89 10 0 26 58 57 114 61 29 2 44 10 59 30 18 24 19 32 9
66 -7 22 -19 45 -28 53 -19 16 -1134 20 -1191 4z m368 -174 c42 -13 91 -10
132 9 21 10 30 11 39 2 17 -17 6 -23 -58 -28 -33 -3 -84 -7 -114 -9 -30 -3
-89 -7 -130 -10 l-75 -5 35 17 c19 9 38 22 42 28 4 5 8 6 8 2 0 -4 8 -4 18 2
20 11 52 9 103 -8z"/>
<path d="M9218 4465 c-3 -3 -27 -8 -52 -10 -26 -2 -70 -11 -98 -21 -41 -13
-55 -14 -71 -5 -46 29 -110 -39 -109 -116 2 -83 51 -165 106 -179 12 -2 46 -6
76 -7 73 -3 66 -22 -8 -22 -57 -1 -104 -18 -141 -53 -10 -9 -26 -22 -37 -28
-25 -14 -21 -74 9 -120 21 -33 24 -34 88 -34 40 0 78 -6 98 -16 29 -14 91 -16
519 -16 268 0 497 1 509 1 12 1 35 12 51 26 27 23 30 30 31 94 1 64 -1 72 -26
96 -16 14 -45 30 -66 36 l-37 10 20 21 c11 12 20 26 20 30 0 5 4 7 9 3 17 -10
97 79 119 132 12 28 22 57 22 62 0 22 -44 78 -69 89 -18 8 -168 12 -486 13
-254 1 -463 6 -466 10 -3 5 -8 7 -11 4z m469 -308 c3 -4 11 -3 17 3 16 12 60
-10 64 -33 5 -24 -30 -34 -108 -31 -90 3 -88 2 -86 20 5 33 89 64 113 41z
m265 -32 c0 -5 -5 -11 -11 -13 -6 -2 -11 4 -11 13 0 9 5 15 11 13 6 -2 11 -8
11 -13z"/>
<path d="M15779 4225 c-41 -24 -72 -36 -82 -32 -27 9 -78 -69 -83 -126 -3 -33
2 -44 32 -73 28 -29 32 -38 24 -54 -6 -11 -15 -20 -19 -20 -21 0 -20 -36 3
-74 45 -77 14 -73 631 -72 523 2 552 3 590 21 22 11 43 25 47 30 11 16 1 56
-19 70 -20 15 -71 9 -93 -11 -18 -16 -74 -24 -113 -17 -32 6 -33 13 -9 42 15
19 29 23 104 26 119 4 131 16 134 125 2 88 -12 114 -64 126 -15 3 -40 10 -56
15 -16 5 -54 9 -85 9 -32 0 -62 5 -68 11 -16 16 -81 13 -126 -6 -21 -8 -61
-18 -90 -21 -42 -4 -56 -2 -72 14 -31 28 -62 33 -87 12 -25 -18 -49 -18 -85 1
-18 10 -28 10 -47 0 -15 -9 -35 -10 -57 -5 -42 10 -52 10 -116 1 -29 -4 -55
-12 -58 -17 -10 -16 -46 -11 -64 8 -24 27 -45 32 -72 17z m256 -276 c79 -22
131 -26 175 -14 28 7 90 8 97 1 3 -3 -14 -14 -37 -26 -31 -16 -52 -20 -79 -15
-24 4 -47 1 -69 -11 -37 -18 -163 -24 -184 -8 -19 15 -109 34 -140 30 -22 -2
-28 1 -28 15 0 23 17 34 33 21 17 -14 52 -9 71 10 17 18 88 16 161 -3z m407
-1 c13 -13 22 -22 20 -21 -2 0 -15 -5 -29 -12 -34 -18 -52 -9 -48 23 4 34 2
32 19 32 8 0 25 -10 38 -22z m128 -32 c0 -7 -13 -13 -30 -13 -33 0 -39 11 -13
25 20 12 43 5 43 -12z"/>
</g>
</svg>
